<?xml version="1.0" encoding="utf-8"?>
<!-- Generator: Adobe Illustrator 25.0.1, SVG Export Plug-In . SVG Version: 6.00 Build 0)  -->
<svg version="1.1" id="_x31_" xmlns="http://www.w3.org/2000/svg" xmlns:xlink="http://www.w3.org/1999/xlink" x="0px" y="0px"
	 viewBox="0 0 500 138.8" style="enable-background:new 0 0 500 138.8;" xml:space="preserve">
<style type="text/css">
	.st0{opacity:0.36;}
	.st1{fill:#FFFFFF;}
	.st2{clip-path:url(#SVGID_3_);}
</style>
<g>
	<g class="st0">
		<g>
			<path d="M140.3,5.4c-15.3-8.7-52.7,38-52.7,38l56,35.4C143.7,78.7,153.7,12.7,140.3,5.4z"/>
			<path d="M143.7,81.4c-0.7,0-1.3,0-1.3-0.7l-56-35.4c-0.7,0-1.3-0.7-1.3-1.3c0-0.7,0-1.3,0.7-2c3.3-4,33.4-40,50.7-40
				c2,0,4,0.7,6,1.3c4,2.7,9.3,9.3,8,42c-0.7,17.3-3.3,34-3.3,34c0,0.7-0.7,2-1.3,2C144.3,81.4,144.3,81.4,143.7,81.4z M91.6,42.7
				L141,74.1c0.7-6,2-17.3,2.7-29.4C145,14,140.3,8.7,139,8c-0.7-0.7-2-0.7-2.7-0.7C124.3,7.4,102.3,30.7,91.6,42.7z"/>
		</g>
		<path class="st1" d="M133,19.4c-10-6-36,26-36,26l38.7,24C135.7,69.4,142.3,24,133,19.4z"/>
		<g>
			<path d="M24.2,5.4c14.7-8.7,52.7,38,52.7,38l-56,35.4C20.9,78.7,11.6,12.7,24.2,5.4z"/>
			<path d="M20.9,81.4c-0.7,0-0.7,0-1.3,0c-0.7-0.7-1.3-1.3-1.3-2.7c0,0-2.7-16.7-3.3-34c-1.3-32.7,4-39.4,8-42
				c1.3-0.7,3.3-1.3,5.3-1.3c18,0,47.4,36,50.7,40c0.7,0.7,0.7,1.3,0.7,2c0,0.7-0.7,1.3-1.3,2l-56,36C22.2,81.4,21.6,81.4,20.9,81.4
				z M28.3,7.4c-1.3,0-2,0-2.7,0.7c-1.3,0.7-6.7,6-4.7,36.7c0.7,12,2,23.3,2.7,29.4l49.4-31.4C62.9,30.7,40.3,7.4,28.3,7.4z"/>
		</g>
		<path class="st1" d="M31.6,19.4c10-6,36,26,36,26l-38.7,24C29.6,69.4,22.9,24,31.6,19.4z"/>
		<g>
			<g>
				<path id="SVGID_1_" class="st1" d="M143,58.1c-8.7-22.7-36.7-32-60.7-32c-24,0.7-52.7,9.3-60.7,32c-7.3,20-14,46.7-14,46.7
					c8,23.3,46,30,74.7,30s66.7-6.7,74.7-30C157,104.8,150.3,78.1,143,58.1z"/>
			</g>
			<g>
				<g>
					<defs>
						<path id="SVGID_2_" d="M143,58.1c-8.7-22.7-36.7-32-60.7-32c-24,0.7-52.7,9.3-60.7,32c-7.3,20-14,46.7-14,46.7
							c8,23.3,46,30,74.7,30s66.7-6.7,74.7-30C157,104.8,150.3,78.1,143,58.1z"/>
					</defs>
					<clipPath id="SVGID_3_">
						<use xlink:href="#SVGID_2_"  style="overflow:visible;"/>
					</clipPath>
					<path class="st2" d="M126.3,147.5H39.6l-66.7-45.4h10c0.7,0,36.7,0.7,62,0.7c11.3,0,12.7-4,15.3-10c2.7-6.7,6-14.7,23.3-14.7
						s20.7,8,23.3,14.7c2,6,4,10,15.3,10c24.7,0,61.4-0.7,62-0.7h10L126.3,147.5z M42.3,141.5H125l48.7-33.4
						c-12.7,0-35.4,0.7-52,0.7c-15.3,0-18-8-20.7-14c-2.7-6-4-11.3-17.3-11.3s-15.3,5.3-18,11.3c-2.7,6-5.3,14-20.7,14
						c-17.3,0-39.4-0.7-52-0.7L42.3,141.5z"/>
				</g>
			</g>
		</g>
		<path d="M125.7,90.8c0-4-3.3-7.3-7.3-7.3c-4,0-7.3,3.3-7.3,7.3c0,4,3.3,7.3,7.3,7.3C122.3,98.1,125.7,94.8,125.7,90.8z"/>
		<path d="M41.6,90.8c0-4,3.3-7.3,7.3-7.3s7.3,3.3,7.3,7.3c0,4-3.3,7.3-7.3,7.3S41.6,94.8,41.6,90.8z"/>
		<path d="M91,98.1c-3.3,2.7-4.7-0.7-4.7-3.3s0-6-3.3-6c-3.3,0-3.3,3.3-3.3,6c0,3.3-0.7,6-4.7,3.3c-3.3-2.7-7.3,2.7-2.7,5.3
			c4,2.7,9.3,0.7,10-0.7c1.3,1.3,6,3.3,10,0.7C98.3,100.8,95,95.4,91,98.1z"/>
		<path d="M88.3,88.1c-1.3-1.3-3.3-2-4.7-2l0,0c-2,0-4,0.7-4.7,2c-2,2.7-2,6,4.7,8h0.7C90.3,94.8,90.3,90.8,88.3,88.1z"/>
		<path d="M82.3,137.5c-15.3,0-66.7-2-77.4-32c0-0.7,0-1.3,0-1.3s6.7-27.4,14-46.7C28.3,32.7,58.9,24,82.3,24
			c24,0,54.7,8.7,63.4,33.4c7.3,19.3,14,46.7,14,46.7c0,0.7,0,1.3,0,1.3C149.7,135.5,97.6,137.5,82.3,137.5z M10.9,104.8
			c10,25.4,57.4,27.4,72.1,27.4s62-2,72.1-27.4c-1.3-4.7-7.3-28-13.3-45.4c-8-22-36.7-30-58-30s-51.4,8-59.4,30
			C17.6,76.7,11.6,100.1,10.9,104.8z"/>
	</g>
	<g class="st0">
		<g>
			<path d="M182.3,44.7v-31h12.2c2.3,0,4.3,0.4,6,1.3c1.7,0.9,2.9,2.1,3.8,3.7c0.9,1.6,1.3,3.4,1.3,5.4c0,2.1-0.4,3.9-1.3,5.4
				c-0.9,1.6-2.2,2.8-3.8,3.7c-1.7,0.9-3.7,1.3-6.1,1.3h-7.8v-5.2h6.7c1.3,0,2.3-0.2,3.1-0.7c0.8-0.4,1.4-1,1.8-1.8
				c0.4-0.8,0.6-1.7,0.6-2.7c0-1-0.2-1.9-0.6-2.7c-0.4-0.8-1-1.4-1.9-1.8c-0.8-0.4-1.9-0.6-3.1-0.6h-4.4v25.6H182.3z"/>
			<path d="M219.9,45.1c-2.3,0-4.4-0.5-6.1-1.5c-1.7-1-3-2.4-4-4.2c-0.9-1.8-1.4-3.9-1.4-6.3c0-2.4,0.5-4.5,1.4-6.3
				c0.9-1.8,2.2-3.2,4-4.2c1.7-1,3.7-1.5,6.1-1.5c2.3,0,4.4,0.5,6.1,1.5c1.7,1,3,2.4,4,4.2c0.9,1.8,1.4,3.9,1.4,6.3
				c0,2.4-0.5,4.5-1.4,6.3c-0.9,1.8-2.2,3.2-4,4.2C224.2,44.6,222.2,45.1,219.9,45.1z M219.9,40.1c1.1,0,2-0.3,2.7-0.9
				c0.7-0.6,1.3-1.4,1.6-2.5c0.4-1.1,0.6-2.3,0.6-3.6c0-1.4-0.2-2.6-0.6-3.6c-0.4-1.1-0.9-1.9-1.6-2.5c-0.7-0.6-1.6-0.9-2.7-0.9
				c-1.1,0-2,0.3-2.7,0.9c-0.7,0.6-1.3,1.4-1.6,2.5c-0.4,1.1-0.6,2.3-0.6,3.6c0,1.4,0.2,2.6,0.6,3.6c0.4,1.1,0.9,1.9,1.6,2.5
				C217.9,39.8,218.8,40.1,219.9,40.1z"/>
			<path d="M247.8,21.5v4.8h-14v-4.8H247.8z M237,15.9h6.4v21.6c0,0.6,0.1,1.1,0.3,1.4c0.2,0.3,0.4,0.6,0.8,0.7
				c0.3,0.1,0.7,0.2,1.1,0.2c0.3,0,0.6,0,0.9-0.1c0.3-0.1,0.5-0.1,0.7-0.1l1,4.8c-0.3,0.1-0.8,0.2-1.4,0.4c-0.6,0.1-1.3,0.2-2.1,0.2
				c-1.6,0.1-2.9-0.1-4.1-0.6c-1.2-0.5-2.1-1.2-2.7-2.2c-0.6-1-1-2.3-1-3.8V15.9z"/>
			<path d="M262.4,45.1c-2.4,0-4.4-0.5-6.2-1.5c-1.7-1-3-2.4-4-4.1c-0.9-1.8-1.4-3.9-1.4-6.4c0-2.4,0.5-4.5,1.4-6.3
				c0.9-1.8,2.2-3.2,3.9-4.2c1.7-1,3.7-1.5,6-1.5c1.5,0,3,0.2,4.3,0.7c1.3,0.5,2.5,1.2,3.5,2.2c1,1,1.8,2.2,2.3,3.7s0.8,3.2,0.8,5.2
				v1.8h-19.6v-4h13.5c0-0.9-0.2-1.7-0.6-2.5c-0.4-0.7-1-1.3-1.7-1.7c-0.7-0.4-1.5-0.6-2.5-0.6c-1,0-1.8,0.2-2.6,0.7
				c-0.7,0.4-1.3,1-1.8,1.8c-0.4,0.8-0.6,1.6-0.7,2.5v3.8c0,1.1,0.2,2.1,0.6,3c0.4,0.8,1,1.5,1.8,1.9c0.8,0.5,1.7,0.7,2.8,0.7
				c0.7,0,1.4-0.1,2-0.3c0.6-0.2,1.1-0.5,1.5-0.9c0.4-0.4,0.7-0.9,1-1.5l6,0.4c-0.3,1.4-0.9,2.7-1.8,3.7c-0.9,1.1-2.1,1.9-3.6,2.5
				C266,44.8,264.3,45.1,262.4,45.1z"/>
			<path d="M283.7,31.3v13.4h-6.4V21.5h6.1v4.1h0.3c0.5-1.4,1.4-2.4,2.6-3.2c1.2-0.8,2.7-1.2,4.4-1.2c1.6,0,3,0.4,4.2,1.1
				c1.2,0.7,2.1,1.7,2.8,3c0.7,1.3,1,2.9,1,4.7v14.8h-6.4V31c0-1.4-0.4-2.5-1.1-3.3c-0.7-0.8-1.8-1.2-3-1.2c-0.9,0-1.6,0.2-2.3,0.6
				c-0.7,0.4-1.2,0.9-1.5,1.6C283.9,29.4,283.7,30.3,283.7,31.3z"/>
			<path d="M314.2,45.1c-2.4,0-4.4-0.5-6.1-1.5c-1.7-1-3-2.4-3.9-4.2c-0.9-1.8-1.4-3.9-1.4-6.2c0-2.4,0.5-4.5,1.4-6.3
				c0.9-1.8,2.2-3.2,3.9-4.2c1.7-1,3.7-1.5,6.1-1.5c2,0,3.8,0.4,5.3,1.1c1.5,0.7,2.7,1.8,3.6,3.1c0.9,1.3,1.4,2.9,1.5,4.7h-6.1
				c-0.2-1.2-0.6-2.1-1.4-2.8c-0.7-0.7-1.7-1.1-2.9-1.1c-1,0-1.9,0.3-2.6,0.8c-0.7,0.5-1.3,1.3-1.7,2.4c-0.4,1-0.6,2.3-0.6,3.7
				c0,1.5,0.2,2.7,0.6,3.8c0.4,1,1,1.8,1.7,2.4c0.7,0.5,1.6,0.8,2.6,0.8c0.7,0,1.4-0.1,2-0.5c0.6-0.3,1.1-0.7,1.5-1.3
				c0.4-0.6,0.6-1.3,0.8-2.1h6.1c-0.1,1.8-0.6,3.3-1.4,4.7c-0.9,1.3-2,2.4-3.6,3.2C318,44.8,316.2,45.1,314.2,45.1z"/>
			<path d="M331.9,18.5c-1,0-1.8-0.3-2.5-1c-0.7-0.6-1-1.4-1-2.3c0-0.9,0.3-1.6,1-2.3c0.7-0.6,1.5-1,2.5-1s1.8,0.3,2.5,1
				c0.7,0.6,1,1.4,1,2.3c0,0.9-0.3,1.7-1,2.3C333.7,18.1,332.9,18.5,331.9,18.5z M328.7,44.7V21.5h6.4v23.2H328.7z"/>
			<path d="M346.9,45.1c-1.5,0-2.8-0.3-4-0.8s-2.1-1.3-2.7-2.3c-0.7-1-1-2.3-1-3.8c0-1.3,0.2-2.4,0.7-3.2c0.5-0.9,1.1-1.6,1.9-2.1
				c0.8-0.5,1.7-0.9,2.8-1.2c1-0.3,2.1-0.5,3.3-0.6c1.4-0.1,2.4-0.3,3.3-0.4c0.8-0.1,1.4-0.3,1.8-0.6c0.4-0.3,0.6-0.6,0.6-1.1v-0.1
				c0-1-0.3-1.7-0.9-2.2c-0.6-0.5-1.5-0.8-2.5-0.8c-1.2,0-2.1,0.3-2.8,0.8c-0.7,0.5-1.1,1.1-1.4,1.9l-6-0.5c0.3-1.4,0.9-2.6,1.8-3.7
				c0.9-1,2-1.8,3.4-2.4c1.4-0.6,3-0.8,4.9-0.8c1.3,0,2.5,0.2,3.7,0.5c1.2,0.3,2.2,0.8,3.2,1.4c0.9,0.6,1.6,1.4,2.2,2.4
				c0.5,1,0.8,2.2,0.8,3.6v15.7h-6.1v-3.2h-0.2c-0.4,0.7-0.9,1.4-1.5,1.9c-0.6,0.5-1.4,1-2.3,1.3C349,45,348,45.1,346.9,45.1z
				 M348.7,40.7c0.9,0,1.8-0.2,2.5-0.6c0.7-0.4,1.3-0.9,1.7-1.5c0.4-0.6,0.6-1.4,0.6-2.2v-2.5c-0.2,0.1-0.5,0.2-0.8,0.4
				c-0.3,0.1-0.7,0.2-1.2,0.3c-0.4,0.1-0.9,0.2-1.3,0.2c-0.4,0.1-0.8,0.1-1.2,0.2c-0.8,0.1-1.4,0.3-2,0.5c-0.6,0.2-1,0.6-1.3,1
				c-0.3,0.4-0.5,0.9-0.5,1.5c0,0.9,0.3,1.5,1,2C346.9,40.4,347.7,40.7,348.7,40.7z"/>
			<path d="M373.5,45.1c-1.8,0-3.4-0.5-4.8-1.4c-1.4-0.9-2.5-2.3-3.4-4c-0.8-1.8-1.2-4-1.2-6.6c0-2.7,0.4-4.9,1.3-6.6
				c0.9-1.8,2-3.1,3.4-4s3-1.3,4.7-1.3c1.3,0,2.4,0.2,3.3,0.7c0.9,0.4,1.6,1,2.1,1.6c0.5,0.7,0.9,1.3,1.2,1.9h0.2V13.7h6.4v31h-6.4
				V41h-0.3c-0.3,0.6-0.7,1.3-1.3,1.9c-0.6,0.6-1.3,1.1-2.1,1.6C375.8,44.8,374.8,45.1,373.5,45.1z M375.5,39.9c1,0,1.9-0.3,2.6-0.9
				c0.7-0.6,1.3-1.4,1.7-2.4c0.4-1,0.6-2.2,0.6-3.6c0-1.4-0.2-2.6-0.6-3.6c-0.4-1-0.9-1.8-1.7-2.4c-0.7-0.6-1.6-0.8-2.6-0.8
				c-1.1,0-1.9,0.3-2.7,0.9c-0.7,0.6-1.3,1.4-1.6,2.4c-0.4,1-0.6,2.2-0.6,3.5c0,1.4,0.2,2.5,0.6,3.6c0.4,1,0.9,1.8,1.6,2.4
				C373.6,39.6,374.5,39.9,375.5,39.9z"/>
			<path d="M402.5,45.1c-2.3,0-4.4-0.5-6.1-1.5c-1.7-1-3-2.4-4-4.2c-0.9-1.8-1.4-3.9-1.4-6.3c0-2.4,0.5-4.5,1.4-6.3
				c0.9-1.8,2.2-3.2,4-4.2c1.7-1,3.7-1.5,6.1-1.5c2.3,0,4.4,0.5,6.1,1.5c1.7,1,3,2.4,4,4.2c0.9,1.8,1.4,3.9,1.4,6.3
				c0,2.4-0.5,4.5-1.4,6.3c-0.9,1.8-2.2,3.2-4,4.2C406.9,44.6,404.8,45.1,402.5,45.1z M402.5,40.1c1.1,0,2-0.3,2.7-0.9
				c0.7-0.6,1.3-1.4,1.6-2.5c0.4-1.1,0.6-2.3,0.6-3.6c0-1.4-0.2-2.6-0.6-3.6c-0.4-1.1-0.9-1.9-1.6-2.5c-0.7-0.6-1.6-0.9-2.7-0.9
				s-2,0.3-2.7,0.9c-0.7,0.6-1.3,1.4-1.6,2.5c-0.4,1.1-0.6,2.3-0.6,3.6c0,1.4,0.2,2.6,0.6,3.6c0.4,1.1,0.9,1.9,1.6,2.5
				C400.5,39.8,401.4,40.1,402.5,40.1z"/>
			<path d="M428,53.4V21.5h6.3v3.9h0.3c0.3-0.6,0.7-1.3,1.2-1.9c0.5-0.6,1.2-1.2,2.1-1.6c0.9-0.4,2-0.7,3.3-0.7
				c1.7,0,3.3,0.4,4.7,1.3c1.4,0.9,2.6,2.2,3.4,4c0.9,1.8,1.3,4,1.3,6.6c0,2.6-0.4,4.8-1.2,6.6c-0.8,1.8-2,3.1-3.4,4
				c-1.4,0.9-3,1.4-4.8,1.4c-1.2,0-2.3-0.2-3.2-0.6c-0.9-0.4-1.6-0.9-2.1-1.6c-0.6-0.6-1-1.3-1.3-1.9h-0.2v12.4H428z M434.3,33.1
				c0,1.4,0.2,2.6,0.6,3.6c0.4,1,0.9,1.8,1.7,2.4c0.7,0.6,1.6,0.9,2.6,0.9c1.1,0,1.9-0.3,2.7-0.9c0.7-0.6,1.3-1.4,1.7-2.4
				c0.4-1,0.6-2.2,0.6-3.6c0-1.3-0.2-2.5-0.6-3.5c-0.4-1-0.9-1.8-1.6-2.4c-0.7-0.6-1.6-0.9-2.7-0.9c-1,0-1.9,0.3-2.6,0.8
				c-0.7,0.6-1.3,1.3-1.7,2.4C434.5,30.5,434.3,31.7,434.3,33.1z"/>
			<path d="M465.4,45.1c-2.3,0-4.4-0.5-6.1-1.5c-1.7-1-3-2.4-4-4.2c-0.9-1.8-1.4-3.9-1.4-6.3c0-2.4,0.5-4.5,1.4-6.3
				c0.9-1.8,2.2-3.2,4-4.2c1.7-1,3.7-1.5,6.1-1.5s4.4,0.5,6.1,1.5c1.7,1,3,2.4,4,4.2c0.9,1.8,1.4,3.9,1.4,6.3c0,2.4-0.5,4.5-1.4,6.3
				c-0.9,1.8-2.2,3.2-4,4.2C469.8,44.6,467.7,45.1,465.4,45.1z M465.4,40.1c1.1,0,2-0.3,2.7-0.9c0.7-0.6,1.3-1.4,1.6-2.5
				c0.4-1.1,0.6-2.3,0.6-3.6c0-1.4-0.2-2.6-0.6-3.6c-0.4-1.1-0.9-1.9-1.6-2.5c-0.7-0.6-1.6-0.9-2.7-0.9s-2,0.3-2.7,0.9
				c-0.7,0.6-1.3,1.4-1.6,2.5c-0.4,1.1-0.6,2.3-0.6,3.6c0,1.4,0.2,2.6,0.6,3.6c0.4,1.1,0.9,1.9,1.6,2.5
				C463.4,39.8,464.3,40.1,465.4,40.1z"/>
			<path d="M481,44.7V21.5h6.2v4.1h0.2c0.4-1.4,1.1-2.5,2.1-3.3s2.1-1.1,3.4-1.1c0.3,0,0.7,0,1,0.1c0.4,0,0.7,0.1,1,0.2v5.7
				c-0.3-0.1-0.7-0.2-1.3-0.2c-0.5-0.1-1-0.1-1.5-0.1c-0.9,0-1.8,0.2-2.5,0.6c-0.7,0.4-1.3,1-1.8,1.7c-0.4,0.7-0.6,1.6-0.6,2.5v13.1
				H481z"/>
		</g>
		<g>
			<path d="M254.7,126.9c-4.5-0.9-10.5-4.1-14.1-7.6c-11.9-11.9-10-30.8,4-40.4c13.9-9.6,34-4.2,41.2,11
				C295.1,109.6,277,131.2,254.7,126.9z M266.3,113.8c9.7-4.4,11.5-17.2,3.4-24.3C261,82,247.3,88,246.3,99.7
				c-0.5,6.1,3.4,12.4,9.1,14.7C258,115.4,263.4,115.2,266.3,113.8z"/>
			<path d="M368,126.9c-4.5-0.9-10.5-4.1-14.1-7.6c-11.9-11.9-10-30.8,4-40.4c13.9-9.6,34-4.2,41.2,11
				C408.4,109.6,390.3,131.2,368,126.9z M379.5,113.8c9.7-4.4,11.5-17.2,3.4-24.3c-8.6-7.5-22.3-1.6-23.3,10.1
				c-0.5,6.1,3.4,12.4,9.1,14.7C371.3,115.4,376.7,115.2,379.5,113.8z"/>
			<path d="M461.5,126.9c-4.5-0.9-10.5-4.1-14.1-7.6c-11.9-11.9-10-30.8,4-40.4c13.9-9.6,34-4.2,41.2,11
				C501.9,109.6,483.8,131.2,461.5,126.9z M473.1,113.8c9.7-4.4,11.5-17.2,3.4-24.3c-8.6-7.5-22.3-1.6-23.3,10.1
				c-0.5,6.1,3.4,12.4,9.1,14.7C464.8,115.4,470.2,115.2,473.1,113.8z"/>
			<path d="M182.3,92.4V58.5h6.6h6.6v18.1c0,9.9,0.3,18.1,0.5,18.1c0.3,0,3.8-4,7.9-8.8c4-4.8,7.8-9.1,8.3-9.5
				c0.6-0.5,3.4-0.7,8.5-0.6l7.6,0.2l-8.6,9.9c-4.7,5.5-8.8,10.3-9,10.7c-0.2,0.5,4.7,7.2,10.9,14.9s11.3,14.3,11.3,14.5
				c0,0.2-3.6,0.4-7.9,0.4h-7.8l-10.4-13.5c-5.7-7.4-10.6-13.5-10.9-13.5c-0.3,0-0.5,6.1-0.5,13.5v13.5h-6.6h-6.6V92.4z"/>
			<path d="M295.6,92.4V58.5h6.6h6.6v18.1c0,9.9,0.3,18.1,0.5,18.1c0.3,0,3.8-4,7.9-8.8c4-4.8,7.8-9.1,8.3-9.5
				c0.6-0.5,3.4-0.7,8.5-0.6l7.6,0.2l-8.6,9.9c-4.7,5.5-8.8,10.3-9,10.7c-0.2,0.5,4.7,7.2,10.9,14.9c6.2,7.8,11.3,14.3,11.3,14.5
				c0,0.2-3.6,0.4-7.9,0.4h-7.8l-10.4-13.5c-5.7-7.4-10.6-13.5-10.9-13.5c-0.3,0-0.5,6.1-0.5,13.5v13.5h-6.6h-6.6V92.4L295.6,92.4z"
				/>
			<path d="M408.3,110.4c0.2-14.8,0.3-16.3,1.8-19.8c3.8-9.5,11.5-15.3,22-16.5l3.8-0.4v6.3c0,5.5-0.1,6.3-1.1,6.3
				c-1.8,0-7.6,3-9.2,4.7c-3.2,3.4-3.5,5.5-3.5,21v14.5h-7h-7L408.3,110.4z"/>
		</g>
	</g>
</g>
</svg>
